<?xml version="1.0" encoding="UTF-8" standalone="no"?>
<svg
   xmlns:dc="http://purl.org/dc/elements/1.1/"
   xmlns:cc="http://creativecommons.org/ns#"
   xmlns:rdf="http://www.w3.org/1999/02/22-rdf-syntax-ns#"
   xmlns:svg="http://www.w3.org/2000/svg"
   xmlns="http://www.w3.org/2000/svg"
   xmlns:sodipodi="http://sodipodi.sourceforge.net/DTD/sodipodi-0.dtd"
   xmlns:inkscape="http://www.inkscape.org/namespaces/inkscape"
   width="74.568054mm"
   height="74.568573mm"
   viewBox="0 0 74.568054 74.568573"
   version="1.1"
   id="svg8"
   inkscape:version="1.0.2-2 (e86c870879, 2021-01-15)"
   sodipodi:docname="logo.svg">
  <defs
     id="defs2" />
  <sodipodi:namedview
     id="base"
     pagecolor="#ffffff"
     bordercolor="#666666"
     borderopacity="1.0"
     inkscape:pageopacity="0.0"
     inkscape:pageshadow="2"
     inkscape:zoom="1.4"
     inkscape:cx="438.83999"
     inkscape:cy="271.10151"
     inkscape:document-units="mm"
     inkscape:current-layer="layer1"
     inkscape:document-rotation="0"
     showgrid="false"
     inkscape:pagecheckerboard="false"
     inkscape:showpageshadow="false"
     showborder="true"
     fit-margin-top="0"
     fit-margin-left="0"
     fit-margin-right="0"
     fit-margin-bottom="0"
     inkscape:window-width="2160"
     inkscape:window-height="1361"
     inkscape:window-x="-9"
     inkscape:window-y="-9"
     inkscape:window-maximized="1" />
  <metadata
     id="metadata5">
    <rdf:RDF>
      <cc:Work
         rdf:about="">
        <dc:format>image/svg+xml</dc:format>
        <dc:type
           rdf:resource="http://purl.org/dc/dcmitype/StillImage" />
        <dc:title></dc:title>
      </cc:Work>
    </rdf:RDF>
  </metadata>
  <g
     inkscape:label="Layer 1"
     inkscape:groupmode="layer"
     id="layer1"
     transform="translate(-42.629567,-21.915975)">
    <g
       id="g858">
      <circle
         style="fill:#fffffb;fill-opacity:0.979757;stroke-width:0.264583"
         id="path854"
         cx="79.913597"
         cy="59.200264"
         r="35.546848" />
      <path
         id="path833"
         style="fill:#e11e60;fill-opacity:1;stroke-width:0.264583"
         d="m 79.913597,21.915975 c -20.591386,3.6e-5 -37.283993,16.692644 -37.28403,37.284029 -2.49e-4,20.591587 16.692443,37.284509 37.28403,37.284546 20.591583,-3.7e-5 37.284273,-16.692959 37.284023,-37.284546 -3e-5,-20.591385 -16.69264,-37.283991 -37.284023,-37.284029 z m 9.0873,5.479253 h 2.137854 c 0,0 -7.283074,7.884435 -8.485788,9.822137 -1.202714,1.937706 -2.705915,4.123997 -2.873208,6.48126 -0.237588,3.347707 0.929679,6.862256 2.739882,9.688296 0.758378,1.18396 3.207041,2.739884 3.207041,2.739884 l 10.69082,2.605527 c 0,0 1.154814,0.322059 2.385901,0.969965 1.099857,0.578842 1.088306,1.368909 1.088306,1.368909 0,0 -0.819878,1.004851 -1.379244,1.297596 -0.814107,0.426064 -2.696477,0.57309 -2.696477,0.57309 l -11.292335,0.401011 c 0,0 -2.109266,1.641115 -2.93987,2.672704 -0.951166,1.181325 -1.653093,2.557632 -2.271696,3.942395 -0.669351,1.498365 -1.560465,3.036332 -1.536859,4.677235 0.05381,3.740656 3.073564,9.688354 3.808555,10.556978 0.734989,0.868627 4.877737,6.414596 4.877737,6.414596 l -3.541385,-0.601515 c 0,0 -9.104018,-6.613416 -12.762013,-10.824662 -2.435346,-2.803678 -5.660993,-5.718461 -5.946923,-9.42113 -0.05607,-0.726059 0.488697,-1.383306 0.86868,-2.004528 0.767829,-1.2553 2.138376,-2.00438 2.806547,-3.407545 0.668176,-1.403165 0.06666,-2.739366 0.06666,-2.739366 0,0 -0.935296,-0.868992 -2.071192,-1.403533 -1.135896,-0.534537 -3.675227,-1.469678 -3.675227,-1.469678 l -0.868164,0.534334 c 0,0 -0.28729,-1.192406 0.08306,-1.778865 0.138697,-0.219628 0.785106,-0.693335 0.785106,-0.693335 0,0 0.172987,-0.645703 0.401008,-0.86868 1.597554,-1.562214 6.14743,-2.672705 6.14743,-2.672705 0,0 0.267012,-0.868272 0.33383,-1.93735 0.06682,-1.069078 -0.537139,-2.171097 -1.068671,-3.140893 -0.548375,-1.00053 -1.66261,-1.635678 -2.13837,-2.672707 -0.151133,-0.329425 -0.294349,-0.71859 -0.200504,-1.068668 0.965176,-3.600471 3.608318,-6.08036 7.283275,-8.485785 3.674957,-2.405425 16.036232,-9.554972 16.036232,-9.554972 z"
         sodipodi:nodetypes="cccccccsssccscsccssssccsssscsccscscssssscc" />
    </g>
  </g>
</svg>
